g _1x6_Wall_Forest
v -3 -0.4819883 0.4924401
v -3 -0.4819883 0.007559836
v -3 0.4819883 0.007559836
v -3 0.4262703 0.4924401
v 2.96733 0.4995162 0.4775117
v 3 0.4819883 0.007559836
v 3 0.4819883 0.4699519
v 2.968781 0.5 0
v 1.430266 0.4767553 0.5
v 1.5 0.5 0
v 0 0.5 0.4491422
v 0 0.5 0
v -1.5 0.5 0.5
v -1.5 0.5 0
v -2.974712 0.444282 0.5
v -2.974712 0.5 0
v 3 0.4819883 0.4699519
v 3 0.4819883 0.007559836
v 3 -0.4819883 0.007559836
v 3 -0.4473127 0.5617602
v -2.973536 -0.4996081 0.5
v -2.974712 -0.5 0
v -3 -0.4819883 0.007559836
v -3 -0.4819883 0.4924401
v 2.968781 -0.5 0
v 3 -0.4819883 0.007559836
v 3 0.4819883 0.007559836
v 2.968781 0.5 0
v 1.5 -0.5 0
v 1.5 0.5 0
v 0 -0.5 0
v 0 0.5 0
v -1.5 -0.5 0
v -1.5 0.5 0
v -2.974712 -0.5 0
v -2.974712 0.5 0
v -3 -0.4819883 0.007559836
v -3 0.4819883 0.007559836
v -2.973536 -0.4996081 0.5
v -3 -0.4819883 0.4924401
v -3 0.4262703 0.4924401
v -2.974712 0.444282 0.5
v -1.430266 -0.4767553 0.5
v -1.5 0.5 0.5
v 0 -0.5 0.5
v 0 0.5 0.4491422
v 1.5 -0.5 0.562023
v 1.430266 0.4767553 0.5
v 2.968781 -0.4653244 0.5706109
v 2.96733 0.4995162 0.4775117
v 3 -0.4473127 0.5617602
v 3 0.4819883 0.4699519
v -1.430266 -0.4767553 0.5
v -2.974712 -0.5 0
v -2.973536 -0.4996081 0.5
v -1.5 -0.5 0
v 0 -0.5 0.5
v 0 -0.5 0
v 1.5 -0.5 0.562023
v 1.5 -0.5 0
v 2.968781 -0.4653244 0.5706109
v 2.968781 -0.5 0
v 3 -0.4473127 0.5617602
v 3 -0.4819883 0.007559836
v -3 0.4262703 0.4924401
v -3 0.4819883 0.007559836
v -2.974712 0.5 0
v -2.974712 0.444282 0.5
vt 0.8519302 0.1906915
vt 0.9892175 0.1906915
vt 0.9892175 0.0067349
vt 0.8519302 0.006734915
vt 0.5342238 0.01356596
vt 0.6863819 0.001550196
vt 0.5342237 0.001550196
vt 0.6863819 0.01356596
vt 0.5342238 0.2511626
vt 0.6863819 0.2511626
vt 0.5342239 0.500775
vt 0.6863819 0.5007751
vt 0.534224 0.7503875
vt 0.6863821 0.7503875
vt 0.534224 0.9883936
vt 0.6863821 0.9883936
vt 0.8508421 0.3856282
vt 0.9903057 0.3856282
vt 0.9903057 0.20296
vt 0.8508421 0.20296
vt 0.838687 0.9883936
vt 0.6863823 0.9881414
vt 0.6863824 1
vt 0.8386871 1
vt 0.285714 0.01356593
vt 0.2857139 0.001550196
vt 0.001937745 0.001550196
vt 0.001937777 0.01356593
vt 0.285714 0.2511626
vt 0.001937814 0.2511626
vt 0.2857141 0.500775
vt 0.001937882 0.500775
vt 0.2857141 0.7503874
vt 0.00193795 0.7503874
vt 0.2857142 0.9883934
vt 0.001937985 0.9883934
vt 0.2857142 0.9999998
vt 0.001938018 0.9999998
vt 0.2857144 0.9881412
vt 0.2857145 0.9999998
vt 0.5342237 0.9999998
vt 0.5342237 0.9883934
vt 0.2857144 0.7499999
vt 0.5342237 0.7503874
vt 0.2857143 0.4999999
vt 0.5342236 0.500775
vt 0.2857143 0.25
vt 0.5342235 0.2511626
vt 0.2857142 0.01180014
vt 0.5342234 0.01356593
vt 0.2857142 0
vt 0.5342234 0.001550196
vt 0.8386869 0.7503875
vt 0.6863823 0.9881414
vt 0.838687 0.9883936
vt 0.6863823 0.75
vt 0.8386869 0.5007751
vt 0.6863822 0.5
vt 0.8386868 0.2511626
vt 0.6863822 0.25
vt 0.8386868 0.01356596
vt 0.6863822 0.0118002
vt 0.8386868 0.001550196
vt 0.6863821 0
vt 0.534224 1
vt 0.6863821 1
vt 0.6863821 0.9883936
vt 0.534224 0.9883936
vn -1 0 0
vn -1 0 0
vn -1 0 0
vn -1 0 0
vn 0.2475419 0.9687914 0.01289026
vn 0.4861227 0.8738897 0.001200399
vn 0.4861227 0.8738897 0.001200399
vn 0.2475419 0.9687914 0.01289026
vn 5.154921E-05 0.9997026 0.02438123
vn 5.154921E-05 0.9997026 0.02438123
vn 0.003748047 0.9999146 0.01251735
vn 0.003748047 0.9999146 0.01251735
vn -0.009433332 0.9995684 0.02782289
vn -0.009433332 0.9995684 0.02782289
vn -0.01885852 0.9982738 0.05562177
vn -0.01885852 0.9982738 0.05562177
vn 1 0 0
vn 1 0 0
vn 1 0 0
vn 1 0 0
vn -0.567093 -0.8236533 0.001004654
vn -0.567093 -0.8236533 0.001004654
vn -0.567093 -0.8236533 0.001004654
vn -0.567093 -0.8236533 0.001004654
vn 0.1185125 0 -0.9929525
vn 0.2353545 0 -0.9719096
vn 0.2353545 0 -0.9719096
vn 0.1185125 0 -0.9929525
vn 0 0 -1
vn 0 0 -1
vn 0 0 -1
vn 0 0 -1
vn 0 0 -1
vn 0 0 -1
vn -0.1447357 0 -0.9894704
vn -0.1447357 0 -0.9894704
vn -0.2864233 0 -0.9581032
vn -0.2864233 0 -0.9581032
vn -0.1416444 0 0.9899176
vn -0.2804326 0 0.9598737
vn -0.2804326 0 0.9598737
vn -0.1416444 0 0.9899176
vn 0.008779206 0.01316881 0.9998747
vn 0.008779206 0.01316881 0.9998747
vn -0.0102237 0.04100441 0.9991066
vn -0.0102237 0.04100441 0.9991066
vn -0.01745882 0.06771245 0.9975521
vn -0.01745882 0.06771245 0.9975521
vn 0.1260061 0.08771282 0.9881442
vn 0.1260061 0.08771282 0.9881442
vn 0.2470051 0.09433576 0.9644113
vn 0.2470051 0.09433576 0.9644113
vn -0.0001800778 -0.9997252 0.02344231
vn 0.007569987 -0.9997047 0.02309281
vn 0.007569987 -0.9997047 0.02309281
vn -0.0001800778 -0.9997252 0.02344231
vn -0.003965379 -0.9999214 0.01189614
vn -0.003965379 -0.9999214 0.01189614
vn 0.005854995 -0.9998658 0.01530134
vn 0.005854995 -0.9998658 0.01530134
vn 0.2644196 -0.9634322 0.04336539
vn 0.2644196 -0.9634322 0.04336539
vn 0.4998578 -0.864466 0.05329939
vn 0.4998578 -0.864466 0.05329939
vn -0.5776979 0.8110754 0.09177046
vn -0.5776979 0.8110754 0.09177046
vn -0.5776979 0.8110754 0.09177046
vn -0.5776979 0.8110754 0.09177046
g _1x6_Wall_Forest_0
f 3/3/3 2/2/2 1/1/1
f 4/4/4 3/3/3 1/1/1
f 7/7/7 6/6/6 5/5/5
f 6/6/6 8/8/8 5/5/5
f 5/5/5 8/8/8 9/9/9
f 8/8/8 10/10/10 9/9/9
f 9/9/9 10/10/10 11/11/11
f 10/10/10 12/12/12 11/11/11
f 11/11/11 12/12/12 13/13/13
f 12/12/12 14/14/14 13/13/13
f 13/13/13 14/14/14 15/15/15
f 14/14/14 16/16/16 15/15/15
f 19/19/19 18/18/18 17/17/17
f 20/20/20 19/19/19 17/17/17
f 23/23/23 22/22/22 21/21/21
f 24/24/24 23/23/23 21/21/21
f 27/27/27 26/26/26 25/25/25
f 28/28/28 27/27/27 25/25/25
f 28/28/28 25/25/25 29/29/29
f 30/30/30 28/28/28 29/29/29
f 30/30/30 29/29/29 31/31/31
f 32/32/32 30/30/30 31/31/31
f 32/32/32 31/31/31 33/33/33
f 34/34/34 32/32/32 33/33/33
f 34/34/34 33/33/33 35/35/35
f 36/36/36 34/34/34 35/35/35
f 36/36/36 35/35/35 37/37/37
f 38/38/38 36/36/36 37/37/37
f 41/41/41 40/40/40 39/39/39
f 42/42/42 41/41/41 39/39/39
f 42/42/42 39/39/39 43/43/43
f 44/44/44 42/42/42 43/43/43
f 44/44/44 43/43/43 45/45/45
f 46/46/46 44/44/44 45/45/45
f 46/46/46 45/45/45 47/47/47
f 48/48/48 46/46/46 47/47/47
f 48/48/48 47/47/47 49/49/49
f 50/50/50 48/48/48 49/49/49
f 50/50/50 49/49/49 51/51/51
f 52/52/52 50/50/50 51/51/51
f 55/55/55 54/54/54 53/53/53
f 54/54/54 56/56/56 53/53/53
f 53/53/53 56/56/56 57/57/57
f 56/56/56 58/58/58 57/57/57
f 57/57/57 58/58/58 59/59/59
f 58/58/58 60/60/60 59/59/59
f 59/59/59 60/60/60 61/61/61
f 60/60/60 62/62/62 61/61/61
f 61/61/61 62/62/62 63/63/63
f 62/62/62 64/64/64 63/63/63
f 67/67/67 66/66/66 65/65/65
f 68/68/68 67/67/67 65/65/65
